PathFileType	4	(X/Y/Z)	AB03\squats_1.trc
DataRate	CameraRate	NumFrames	NumMarkers	Units	OrigDataRate	OrigDataStartFrame	OrigNumFrames
200.000000	200.000000	4	35	mm	200.000000	193	309
Frame#	Time	C7			LSHO			STRN			LASI			RASI			LPSI			RPSI			LGTR			RGTR			LTHC			LTHL			LTHR			LKNE			LMKNE			LSHC			LSHL			LSHR			LANK			LMANK			LMT1			LMT5			LCAL			RTHC			RTHL			RTHR			RKNE			RMKNE			RSHC			RSHL			RSHR			RANK			RMANK			RMT1			RMT5			RCAL			
		X1	Y1	Z1	X2	Y2	Z2	X3	Y3	Z3	X4	Y4	Z4	X5	Y5	Z5	X6	Y6	Z6	X7	Y7	Z7	X8	Y8	Z8	X9	Y9	Z9	X10	Y10	Z10	X11	Y11	Z11	X12	Y12	Z12	X13	Y13	Z13	X14	Y14	Z14	X15	Y15	Z15	X16	Y16	Z16	X17	Y17	Z17	X18	Y18	Z18	X19	Y19	Z19	X20	Y20	Z20	X21	Y21	Z21	X22	Y22	Z22	X23	Y23	Z23	X24	Y24	Z24	X25	Y25	Z25	X26	Y26	Z26	X27	Y27	Z27	X28	Y28	Z28	X29	Y29	Z29	X30	Y30	Z30	X31	Y31	Z31	X32	Y32	Z32	X33	Y33	Z33	X34	Y34	Z34	X35	Y35	Z35	

194	25.455	-2138.482919904113	1259.490231490846	2478.743767227957	-2064.329844991511	1178.874573876221	2353.264197599546	-2093.025063908114	1072.083188468553	2496.83272621209	-2373.684905873208	838.4427489828541	2331.752328538015	-2391.20646389273	835.980086162874	2656.854992111398	-2548.794614577229	1037.741765864621	2432.881428928878	-2550.41751668879	1039.398325082244	2536.530967420095	-2468.257150582854	873.7402417558087	2252.992702934543	-2469.757620079338	881.2735072857255	2730.49291037483	-2423.145761023603	785.1641916200874	2228.290012323209	-2298.651955335604	759.6942178350462	2343.540184349045	-2512.221001406447	642.9534834313567	2258.859308702128	-2242.399210580449	517.2060373580814	2202.060796259129	-2248.336002489957	472.7453668242434	2362.47663097893	-2318.985432282937	305.0378317555365	2148.00090868703	-2242.942070198757	263.3897649177022	2206.234614999908	-2375.708098363122	251.674157056697	2221.583506643643	-2332.031765393614	121.4423979608792	2143.565065711575	-2299.98416297902	111.8710563951712	2239.577265832393	-2194.677789254389	60.82452736481153	2212.050473100912	-2220.442137637373	57.728548425954	2105.982500686643	-2407.452294660734	69.33959008131517	2199.309039057954	-2494.209971837212	594.9629321792765	2666.173886023031	-2430.751187801095	736.1330293766963	2757.508315376444	-2299.968485923074	762.1626655217791	2626.24292039788	-2241.255331097283	520.7764978340003	2757.496288953341	-2217.073014222887	494.2863260192888	2603.635775241447	-2365.07354167487	223.2123450372123	2723.311983540535	-2294.552571436358	315.7489142754637	2795.922965887734	-2238.725354926104	264.2722885386584	2735.550613876454	-2327.851444856174	116.0319215411164	2794.301994178976	-2307.120499951614	116.7103422136651	2701.783453226107	-2180.275265044846	51.56459244213968	2706.670886412577	-2206.428515146058	57.53404063578017	2822.024003581505	-2401.707342246636	67.99103541302459	2741.64889375243	
195	25.46	-2138.897167997464	1262.270033329581	2478.606789377571	-2064.846526504519	1181.646517613716	2352.948927164545	-2093.118759714642	1074.93673498199	2496.7801846298	-2372.93741346314	839.8844813367253	2331.780884357545	-2390.679817932757	837.5163705425131	2656.911291257564	-2548.557876447339	1039.007443149231	2432.741813732086	-2550.20428307153	1040.661611074879	2536.43918519446	-2467.609696073723	874.5999391233408	2252.717303252775	-2469.324285790395	882.2970937307753	2730.47697538239	-2422.54943914905	785.7184557441898	2228.176284924036	-2297.961748649275	760.1208225543774	2343.314553457485	-2511.884398195783	643.7950815178818	2259.043188076951	-2242.43191604354	517.2295997642528	2202.129078028168	-2248.32473924759	472.8998104334144	2362.581985397987	-2318.979871958386	305.0635367690087	2148.015154750935	-2242.947871334635	263.4106479297125	2206.269711352116	-2375.706579005981	251.6755355192977	2221.583104019228	-2332.002190071293	121.4421144859975	2143.568730916959	-2299.965927796608	111.8613053701557	2239.587943041234	-2194.656807992842	60.77942112043809	2212.057397110728	-2220.421153538208	57.69933591442891	2105.984145674372	-2407.433268736953	69.35643239456776	2199.305470012969	-2494.0170307316	595.7901510332588	2665.750080005657	-2430.431018867363	736.713392168554	2757.363360943734	-2299.376214162007	762.599687445662	2626.381261328006	-2241.416879921013	520.8149123232192	2757.378602941149	-2217.097130793923	494.3715008240827	2603.547246755809	-2365.099481099684	223.1980370999249	2723.254729362604	-2294.678006008759	315.7616065455656	2795.83937963527	-2238.776557594493	264.3111415162966	2735.50786372434	-2327.852924687246	116.0314002820977	2794.274423709011	-2307.107669194046	116.7015599389725	2701.767103989204	-2180.269948221925	51.54162072005099	2706.669391077561	-2206.424445311202	57.52654047010031	2822.02134653162	-2401.700358778893	67.99484266995842	2741.646301994362	
196	25.465	-2139.313735255603	1265.07569618328	2478.465458586097	-2065.375469846155	1184.442631555142	2352.624828387293	-2093.214709149736	1077.816213245035	2496.724335841327	-2372.180041482278	841.3500110811766	2331.81351990928	-2390.137702189648	839.0678430719422	2656.962510200787	-2548.315653670677	1040.267225049627	2432.591910332986	-2549.988139588744	1041.920163460537	2536.338683006401	-2466.939446573752	875.4586856849986	2252.440381181098	-2468.888000001847	883.3233716604733	2730.449076676642	-2421.929766672414	786.2625178145768	2228.063962637896	-2297.250923539189	760.5398610117383	2343.098261214444	-2511.524980185877	644.6310371484293	2259.230910066935	-2242.443381927666	517.2477792685577	2202.210292841221	-2248.30476224805	473.0438296666796	2362.701125383931	-2318.961907210215	305.0879636635794	2148.036713769513	-2242.945188288038	263.42605529877	2206.315814662379	-2375.697519977719	251.6783870201769	2221.585363733528	-2331.96913898979	121.4426538781411	2143.575446595597	-2299.946542293837	111.8462526483806	2239.600610509357	-2194.63329823932	60.73173983786281	2212.065001330257	-2220.398336942917	57.66971818710002	2105.9863698292	-2407.412964418238	69.37428502670473	2199.302717388281	-2493.806153669138	596.6122740723682	2665.316707004688	-2430.101188342042	737.2872889281495	2757.21359222672	-2298.767250448224	763.032014045151	2626.52146865662	-2241.566781316939	520.8528825098068	2757.258836079031	-2217.109816039496	494.453726540427	2603.453667688867	-2365.121621828451	223.1843804639398	2723.196408481792	-2294.797648748615	315.7721068825371	2795.756686869458	-2238.822217598726	264.3486225421306	2735.462220481828	-2327.851975701906	116.031558217887	2794.244858745445	-2307.094089649524	116.6925154341197	2701.749574195381	-2180.263976224698	51.516774677845	2706.667424673019	-2206.419662809235	57.51839184445497	2822.018496598401	-2401.692879014616	67.99931450463953	2741.64362588871	
197	25.47	-2139.734246117117	1267.906453080487	2478.31965373019	-2065.916412775874	1187.262709629383	2352.292766982478	-2093.313270478414	1080.721591974811	2496.665515557539	-2371.413647583729	842.8379492938715	2331.849027918746	-2389.580215017038	840.634659047613	2657.007397849936	-2548.067510942256	1041.521733332067	2432.431488729558	-2549.768625368978	1043.175009651256	2536.228947510056	-2466.246852433102	876.317751731073	2252.162505788887	-2468.447904716932	884.3534958913964	2730.408571070413	-2421.286915348658	786.7974241395586	2227.953528551146	-2296.520153267401	760.9516915146685	2342.892546671721	-2511.143252629552	645.4626822688347	2259.422428653038	-2242.434389783837	517.2608651138463	2202.30505353951	-2248.278165829188	473.1772752341527	2362.834747828856	-2318.931925879989	305.1112496676786	2148.065796656036	-2242.934490175259	263.4361923175294	2206.373284835016	-2375.681321705853	251.68269924587	2221.590510875034	-2331.932807561409	121.4441521552564	2143.585114068614	-2299.925473427065	111.8265600076463	2239.615617138889	-2194.607297159444	60.68201674742468	2212.073395538273	-2220.373782453476	57.63989701890852	2105.989338945501	-2407.391528867899	69.39310565504249	2199.300693479815	-2493.577879282896	597.4302405772868	2664.874277850367	-2429.761322595149	737.8559728884845	2757.058734030889	-2298.141291914465	763.4602063522053	2626.662902711063	-2241.705309753146	520.8907995865446	2757.136315867442	-2217.112476871906	494.5329383835083	2603.354161950195	-2365.14045307426	223.1714404518238	2723.136871433707	-2294.91097734104	315.7810440291649	2795.67480263314	-2238.862688971507	264.3848815743773	2735.413116831804	-2327.848455131024	116.032656653256	2794.213454440849	-2307.079830931954	116.6831807233496	2701.730784051425	-2180.25736985845	51.49009278530942	2706.664917368666	-2206.414082505701	57.50976175193676	2822.015291954218	-2401.685032531476	68.00449753632333	2741.640809799068	
